<svg width="15" height="13" fill="none" xmlns="http://www.w3.org/2000/svg"><path d="M14.977.467a.5.5 0 00-.87-.301 2.559 2.559 0 01-1.226.763A3.441 3.441 0 0010.526 0a3.539 3.539 0 00-3.537 3.541v.44C3.998 3.75 2.4 1.477 1.967.325A.5.5 0 001.05.277C.004 2.373-.157 4.407.604 6.139 1.27 7.656 2.61 8.864 4.51 9.664 3.647 10.276 2.194 11 .5 11a.5.5 0 00-.278.916C1.847 13 3.55 13 5.132 13h.048c4.861 0 8.8-3.946 8.8-8.812v-.479c.363-.37.646-.747.82-1.236.193-.546.232-1.178.177-2.006z" fill="#FCA612"/></svg>